<?xml version="1.0" encoding="utf-8"?>
<!-- Generator: Adobe Illustrator 25.0.0, SVG Export Plug-In . SVG Version: 6.00 Build 0)  -->
<svg version="1.1" id="Calque_1" xmlns="http://www.w3.org/2000/svg" xmlns:xlink="http://www.w3.org/1999/xlink" x="0px" y="0px"
	 viewBox="0 0 100 100" style="enable-background:new 0 0 100 100;" xml:space="preserve">
<style type="text/css">
	.st0{fill:#020203;}
</style>
<g id="g4" transform="matrix(0.51538006,0,0,0.51538006,1.8618888,15.029973)">
	<path id="path2" class="st0" d="M100.53,26.25H53.4v0L11.99,13.85c-0.53-0.16-1.09-0.06-1.53,0.26c-0.44,0.32-0.7,0.83-0.7,1.36
		v10.78H5.26c-0.95,0-1.73,0.77-1.73,1.7v60.07c0,0.94,0.78,1.7,1.73,1.7h35.77v6.73h-6.54v1.7v1.7h36.8v-1.7v-1.7h-6.54v-6.73
		h35.77c0.95,0,1.73-0.76,1.73-1.7V27.95C102.25,27.01,101.48,26.25,100.53,26.25z M13.21,26.25v-8.48l28.33,8.48l5.68,1.7
		l3.95,1.18v0.52v56L13.21,74.28V29.65v-1.7L13.21,26.25z M98.8,86.32H54.62V29.65h6.78v6.3l3.36-2.09l3.36,2.09v-6.3h30.7
		L98.8,86.32L98.8,86.32L98.8,86.32L98.8,86.32z M45.32,40.03L31.88,36v-2.24l13.44,4.04V40.03z M45.32,48.57l-13.44-4.03v-2.24
		l13.44,4.03V48.57z M45.32,57.17l-26.9-8.06v-2.23l26.9,8.05V57.17z M45.32,65.69l-26.9-8.05V55.4l26.9,8.05V65.69z M45.32,74.3
		l-26.9-8.06V64l26.9,8.05V74.3z M20.72,41.85l0.7-2.25l4.05,1.21l0.72,2.67l1.18,0.35l1.19,0.35l-3.78-13.22l-1.29-0.38l-1.29-0.38
		l-3.78,10.96l1.16,0.35L20.72,41.85z M23.46,33.28l1.41,5.28l-2.83-0.85L23.46,33.28z M69.79,48c0-1.91,1.31-2.61,2.93-1.53
		l12.67,8.41c1.61,1.06,1.61,2.81,0,3.87l-12.67,8.41c-1.62,1.07-2.93,0.37-2.93-1.53V48z"/>
</g>
<g id="g935" transform="matrix(0.62999106,0,0,0.62999106,37.96221,17.447321)">
	<g id="g875">
		<g id="Layer_1_64_">
			<g id="g872">
				<path id="path866" class="st0" d="M63.38,41.08c0,0.86,0.71,1.55,1.58,1.55s1.58-0.7,1.58-1.55c0-1.82,0.66-3.59,1.85-4.98
					c2.65-3.09,4.63-6.45,5.89-9.97c0.17-0.48,0.1-1-0.2-1.41c-0.3-0.41-0.78-0.66-1.29-0.66H57.12c-0.51,0-0.99,0.24-1.29,0.66
					c-0.3,0.41-0.37,0.94-0.2,1.41c1.26,3.52,3.24,6.87,5.89,9.97C62.72,37.49,63.37,39.26,63.38,41.08z"/>
				<path id="path868" class="st0" d="M66.53,47.31c0-0.86-0.71-1.55-1.58-1.55s-1.58,0.7-1.58,1.55c0,2.24-1.36,4.46-3.83,6.26
					c-5.28,3.84-9.23,8.01-11.75,12.4c-0.28,0.48-0.27,1.07,0.01,1.55c0.28,0.48,0.8,0.77,1.36,0.77h31.56
					c0.56,0,1.08-0.29,1.36-0.77c0.28-0.47,0.29-1.06,0.01-1.55c-2.51-4.38-6.47-8.56-11.74-12.4
					C67.89,51.77,66.53,49.55,66.53,47.31z"/>
				<path id="path870" class="st0" d="M92.57,70.61h-0.94c-1.08-12.09-8.28-21.38-13.87-27.97c5.59-6.59,12.78-15.88,13.87-27.97
					h0.94c1.74,0,3.16-1.39,3.16-3.11s-1.41-3.11-3.16-3.11H37.34c-1.74,0-3.16,1.39-3.16,3.11c0,1.72,1.41,3.11,3.16,3.11h0.94
					c1.09,12.1,8.27,21.38,13.87,27.97c-5.59,6.59-12.78,15.88-13.87,27.97h-0.94c-1.74,0-3.16,1.39-3.16,3.11
					c0,1.72,1.41,3.11,3.16,3.11h3.95h47.34h3.95c1.74,0,3.16-1.39,3.16-3.11C95.72,72,94.31,70.61,92.57,70.61z M44.61,70.61
					c1.19-10.93,8.4-19.34,13.79-25.63l0.29-0.34c0.99-1.16,0.99-2.85,0-4.01l-0.29-0.33c-5.39-6.29-12.61-14.7-13.79-25.63H85.3
					c-1.19,10.93-8.4,19.34-13.79,25.63l-0.29,0.33c-0.99,1.16-0.99,2.85,0,4.01l0.29,0.34c5.39,6.29,12.6,14.7,13.79,25.63H44.61z"
					/>
			</g>
		</g>
	</g>
	<g id="g877">
	</g>
	<g id="g879">
	</g>
	<g id="g881">
	</g>
	<g id="g883">
	</g>
	<g id="g885">
	</g>
	<g id="g887">
	</g>
	<g id="g889">
	</g>
	<g id="g891">
	</g>
	<g id="g893">
	</g>
	<g id="g895">
	</g>
	<g id="g897">
	</g>
	<g id="g899">
	</g>
	<g id="g901">
	</g>
	<g id="g903">
	</g>
	<g id="g905">
	</g>
</g>
</svg>
